<svg width="420" height="420" viewBox="0 0 420 420" fill="none" xmlns="http://www.w3.org/2000/svg">
<path d="M290 210C290 254.183 254.183 290 210 290C165.817 290 130 254.183 130 210C130 165.817 165.817 130 210 130C254.183 130 290 165.817 290 210Z" fill="#1A1919"/>
<path d="M404.015 116.056C414.568 138.865 420 163.311 420 188H307.572C297.549 143.355 257.67 110 210 110C162.33 110 122.451 143.355 112.428 188H0C0 163.312 5.43179 138.865 15.9853 116.056C26.5388 93.2463 42.0073 72.5214 61.5076 55.064C81.0079 37.6066 104.158 23.7585 129.636 14.3107C155.115 4.86279 182.422 0 210 0C237.578 0 264.885 4.86279 290.364 14.3107C315.842 23.7585 338.992 37.6066 358.492 55.064C377.993 72.5214 393.461 93.2463 404.015 116.056Z" fill="#1A1919"/>
<path d="M112.428 232H0C0 256.688 5.43179 281.135 15.9853 303.944C26.5388 326.754 42.0073 347.479 61.5076 364.936C81.0079 382.393 104.158 396.241 129.636 405.689C155.115 415.137 182.422 420 210 420C237.578 420 264.885 415.137 290.364 405.689C315.842 396.241 338.992 382.393 358.492 364.936C377.993 347.479 393.461 326.754 404.015 303.944C414.568 281.135 420 256.689 420 232H307.572C297.549 276.645 257.67 310 210 310C162.33 310 122.451 276.645 112.428 232Z" fill="#1A1919"/>
</svg>
